<?xml version="1.0" encoding="UTF-8" standalone="no"?>
<!DOCTYPE svg PUBLIC "-//W3C//DTD SVG 1.1//EN" "http://www.w3.org/Graphics/SVG/1.1/DTD/svg11.dtd">
<svg version="1.1" xmlns="http://www.w3.org/2000/svg" xmlns:xlink="http://www.w3.org/1999/xlink" preserveAspectRatio="xMidYMid meet" viewBox="0 0 530 360" width="530" height="360"><defs><path d="M102.54 39.67C64.58 76.22 45.48 120.98 45.61 174.97C45.75 234.7 65.84 282.67 104.87 319.85C113.08 327.18 116.45 332.95 116.47 337.89C116.47 340.31 114.8 342.83 113.13 345.26C111.55 346.94 108.19 348.63 105.78 348.63C96.74 348.65 84.1 337.97 67.6 317.19C35.46 277.8 20.93 234.31 20.11 175.03C19.36 115.72 37.96 75.5 74.35 33.98C87.45 19.14 98.37 11.44 105.83 11.42C108.24 11.41 110.76 12.25 113.19 13.92C114.87 15.59 116.55 18.01 116.56 20.43C116.57 24.63 111.64 30.32 102.54 39.67Z" id="b1VleaY1Cy"></path><path d="M102.54 39.67C64.58 76.22 45.48 120.98 45.61 174.97C45.75 234.7 65.84 282.67 104.87 319.85C113.08 327.18 116.45 332.95 116.47 337.89C116.47 340.31 114.8 342.83 113.13 345.26C111.55 346.94 108.19 348.63 105.78 348.63C96.74 348.65 84.1 337.97 67.6 317.19C35.46 277.8 20.93 234.31 20.11 175.03C19.36 115.72 37.96 75.5 74.35 33.98C87.45 19.14 98.37 11.44 105.83 11.42C108.24 11.41 110.76 12.25 113.19 13.92C114.87 15.59 116.55 18.01 116.56 20.43C116.57 24.63 111.64 30.32 102.54 39.67Z" id="b1k8hiejdf"></path><path d="M197.65 170.21C128.79 266.95 228.27 324.58 228.27 324.58C228.27 324.58 181.58 299.7 235.85 211.12C245.57 195.05 258.28 180.5 274.06 147.74C274.06 147.74 288.03 167.46 280.74 210.22C269.83 274.82 328.04 256.33 328.94 257.23C349.28 281.18 312.1 323.26 309.84 324.58C307.59 325.87 416.01 259.36 338.98 159.27C333.7 164.54 326.85 189.31 312.59 185.66C298.33 182.02 356.86 112.86 252.83 30.06C241.79 58.09 266.47 73.43 197.65 170.21Z" id="bLd4y8ub7"></path><path d="M197.65 170.21C128.79 266.95 228.27 324.58 228.27 324.58C228.27 324.58 181.58 299.7 235.85 211.12C245.57 195.05 258.28 180.5 274.06 147.74C274.06 147.74 288.03 167.46 280.74 210.22C269.83 274.82 328.04 256.33 328.94 257.23C349.28 281.18 312.1 323.26 309.84 324.58C307.59 325.87 416.01 259.36 338.98 159.27C333.7 164.54 326.85 189.31 312.59 185.66C298.33 182.02 356.86 112.86 252.83 30.06C241.79 58.09 266.47 73.43 197.65 170.21Z" id="k1AiaZ53KV"></path><path d="M437.65 39.62C475.61 76.17 494.7 120.94 494.58 174.93C494.43 234.66 474.35 282.63 435.31 319.81C427.1 327.14 423.73 332.91 423.72 337.85C423.72 340.27 425.38 342.79 427.06 345.21C428.63 346.9 431.99 348.58 434.41 348.59C443.44 348.61 456.08 337.93 472.59 317.15C504.73 277.76 519.25 234.27 520.07 174.99C520.82 115.68 502.23 75.46 465.83 33.94C452.73 19.1 441.81 11.39 434.36 11.38C431.94 11.37 429.42 12.2 427 13.88C425.31 15.55 423.63 17.96 423.62 20.39C423.62 24.58 428.54 30.27 437.65 39.62Z" id="djvZ0UnNB"></path><path d="M437.65 39.62C475.61 76.17 494.7 120.94 494.58 174.93C494.43 234.66 474.35 282.63 435.31 319.81C427.1 327.14 423.73 332.91 423.72 337.85C423.72 340.27 425.38 342.79 427.06 345.21C428.63 346.9 431.99 348.58 434.41 348.59C443.44 348.61 456.08 337.93 472.59 317.15C504.73 277.76 519.25 234.27 520.07 174.99C520.82 115.68 502.23 75.46 465.83 33.94C452.73 19.1 441.81 11.39 434.36 11.38C431.94 11.37 429.42 12.2 427 13.88C425.31 15.55 423.63 17.96 423.62 20.39C423.62 24.58 428.54 30.27 437.65 39.62Z" id="cai6QmDf2"></path></defs><g><g><g><g><filter id="shadow14885153" x="-6.91" y="-15.59" width="151.47" height="392.21" filterUnits="userSpaceOnUse" primitiveUnits="userSpaceOnUse"><feFlood></feFlood><feComposite in2="SourceAlpha" operator="in"></feComposite><feGaussianBlur stdDeviation="3.16"></feGaussianBlur><feOffset dx="1" dy="1" result="afterOffset"></feOffset><feFlood flood-color="#30cfd0" flood-opacity="0.25"></feFlood><feComposite in2="afterOffset" operator="in"></feComposite><feMorphology operator="dilate" radius="1"></feMorphology><feComposite in2="SourceAlpha" operator="out"></feComposite></filter><path d="M102.54 39.67C64.58 76.22 45.48 120.98 45.61 174.97C45.75 234.7 65.84 282.67 104.87 319.85C113.08 327.18 116.45 332.95 116.47 337.89C116.47 340.31 114.8 342.83 113.13 345.26C111.55 346.94 108.19 348.63 105.78 348.63C96.74 348.65 84.1 337.97 67.6 317.19C35.46 277.8 20.93 234.31 20.11 175.03C19.36 115.72 37.96 75.5 74.35 33.98C87.45 19.14 98.37 11.44 105.83 11.42C108.24 11.41 110.76 12.25 113.19 13.92C114.87 15.59 116.55 18.01 116.56 20.43C116.57 24.63 111.64 30.32 102.54 39.67Z" id="cdcFyRXfD" fill="white" fill-opacity="1" filter="url(#shadow14885153)"></path></g></g><g><g><filter id="shadow14429979" x="-6.91" y="-15.59" width="151.47" height="392.21" filterUnits="userSpaceOnUse" primitiveUnits="userSpaceOnUse"><feFlood></feFlood><feComposite in2="SourceAlpha" operator="in"></feComposite><feGaussianBlur stdDeviation="3.16"></feGaussianBlur><feOffset dx="1" dy="1" result="afterOffset"></feOffset><feFlood flood-color="#30cfd0" flood-opacity="0.25"></feFlood><feComposite in2="afterOffset" operator="in"></feComposite><feMorphology operator="dilate" radius="1"></feMorphology><feComposite in2="SourceAlpha" operator="out"></feComposite></filter><path d="M102.54 39.67C64.58 76.22 45.48 120.98 45.61 174.97C45.75 234.7 65.84 282.67 104.87 319.85C113.08 327.18 116.45 332.95 116.47 337.89C116.47 340.31 114.8 342.83 113.13 345.26C111.55 346.94 108.19 348.63 105.78 348.63C96.74 348.65 84.1 337.97 67.6 317.19C35.46 277.8 20.93 234.31 20.11 175.03C19.36 115.72 37.96 75.5 74.35 33.98C87.45 19.14 98.37 11.44 105.83 11.42C108.24 11.41 110.76 12.25 113.19 13.92C114.87 15.59 116.55 18.01 116.56 20.43C116.57 24.63 111.64 30.32 102.54 39.67Z" id="cJKLsaPig" fill="white" fill-opacity="1" filter="url(#shadow14429979)"></path></g></g><g><g><filter id="shadow5804143" x="146.37" y="3.06" width="248.29" height="349.54" filterUnits="userSpaceOnUse" primitiveUnits="userSpaceOnUse"><feFlood></feFlood><feComposite in2="SourceAlpha" operator="in"></feComposite><feGaussianBlur stdDeviation="3.16"></feGaussianBlur><feOffset dx="1" dy="1" result="afterOffset"></feOffset><feFlood flood-color="#30cfd0" flood-opacity="0.25"></feFlood><feComposite in2="afterOffset" operator="in"></feComposite><feMorphology operator="dilate" radius="1"></feMorphology><feComposite in2="SourceAlpha" operator="out"></feComposite></filter><path d="M197.65 170.21C128.79 266.95 228.27 324.58 228.27 324.58C228.27 324.58 181.58 299.7 235.85 211.12C245.57 195.05 258.28 180.5 274.06 147.74C274.06 147.74 288.03 167.46 280.74 210.22C269.83 274.82 328.04 256.33 328.94 257.23C349.28 281.18 312.1 323.26 309.84 324.58C307.59 325.87 416.01 259.36 338.98 159.27C333.7 164.54 326.85 189.31 312.59 185.66C298.33 182.02 356.86 112.86 252.83 30.06C241.79 58.09 266.47 73.43 197.65 170.21Z" id="b2ezNlKyq" fill="white" fill-opacity="1" filter="url(#shadow5804143)"></path></g></g><g><g><filter id="shadow4348574" x="146.37" y="3.06" width="248.29" height="349.54" filterUnits="userSpaceOnUse" primitiveUnits="userSpaceOnUse"><feFlood></feFlood><feComposite in2="SourceAlpha" operator="in"></feComposite><feGaussianBlur stdDeviation="3.16"></feGaussianBlur><feOffset dx="1" dy="1" result="afterOffset"></feOffset><feFlood flood-color="#30cfd0" flood-opacity="0.25"></feFlood><feComposite in2="afterOffset" operator="in"></feComposite><feMorphology operator="dilate" radius="1"></feMorphology><feComposite in2="SourceAlpha" operator="out"></feComposite></filter><path d="M197.65 170.21C128.79 266.95 228.27 324.58 228.27 324.58C228.27 324.58 181.58 299.7 235.85 211.12C245.57 195.05 258.28 180.5 274.06 147.74C274.06 147.74 288.03 167.46 280.74 210.22C269.83 274.82 328.04 256.33 328.94 257.23C349.28 281.18 312.1 323.26 309.84 324.58C307.59 325.87 416.01 259.36 338.98 159.27C333.7 164.54 326.85 189.31 312.59 185.66C298.33 182.02 356.86 112.86 252.83 30.06C241.79 58.09 266.47 73.43 197.65 170.21Z" id="d4oRWPsJpb" fill="white" fill-opacity="1" filter="url(#shadow4348574)"></path></g></g><g><g><filter id="shadow6538323" x="396.62" y="-15.63" width="151.47" height="392.21" filterUnits="userSpaceOnUse" primitiveUnits="userSpaceOnUse"><feFlood></feFlood><feComposite in2="SourceAlpha" operator="in"></feComposite><feGaussianBlur stdDeviation="3.16"></feGaussianBlur><feOffset dx="1" dy="1" result="afterOffset"></feOffset><feFlood flood-color="#30cfd0" flood-opacity="0.25"></feFlood><feComposite in2="afterOffset" operator="in"></feComposite><feMorphology operator="dilate" radius="1"></feMorphology><feComposite in2="SourceAlpha" operator="out"></feComposite></filter><path d="M437.65 39.62C475.61 76.17 494.7 120.94 494.58 174.93C494.43 234.66 474.35 282.63 435.31 319.81C427.1 327.14 423.73 332.91 423.72 337.85C423.72 340.27 425.38 342.79 427.06 345.21C428.63 346.9 431.99 348.58 434.41 348.59C443.44 348.61 456.08 337.93 472.59 317.15C504.73 277.76 519.25 234.27 520.07 174.99C520.82 115.68 502.23 75.46 465.83 33.94C452.73 19.1 441.81 11.39 434.36 11.38C431.94 11.37 429.42 12.2 427 13.88C425.31 15.55 423.63 17.96 423.62 20.39C423.62 24.58 428.54 30.27 437.65 39.62Z" id="b19JY1P3cT" fill="white" fill-opacity="1" filter="url(#shadow6538323)"></path></g></g><g><g><filter id="shadow9110961" x="396.62" y="-15.63" width="151.47" height="392.21" filterUnits="userSpaceOnUse" primitiveUnits="userSpaceOnUse"><feFlood></feFlood><feComposite in2="SourceAlpha" operator="in"></feComposite><feGaussianBlur stdDeviation="3.16"></feGaussianBlur><feOffset dx="1" dy="1" result="afterOffset"></feOffset><feFlood flood-color="#30cfd0" flood-opacity="0.25"></feFlood><feComposite in2="afterOffset" operator="in"></feComposite><feMorphology operator="dilate" radius="1"></feMorphology><feComposite in2="SourceAlpha" operator="out"></feComposite></filter><path d="M437.65 39.62C475.61 76.17 494.7 120.94 494.58 174.93C494.43 234.66 474.35 282.63 435.31 319.81C427.1 327.14 423.73 332.91 423.72 337.85C423.72 340.27 425.38 342.79 427.06 345.21C428.63 346.9 431.99 348.58 434.41 348.59C443.44 348.61 456.08 337.93 472.59 317.15C504.73 277.76 519.25 234.27 520.07 174.99C520.82 115.68 502.23 75.46 465.83 33.94C452.73 19.1 441.81 11.39 434.36 11.38C431.94 11.37 429.42 12.2 427 13.88C425.31 15.55 423.63 17.96 423.62 20.39C423.62 24.58 428.54 30.27 437.65 39.62Z" id="i3m12aXA3l" fill="white" fill-opacity="1" filter="url(#shadow9110961)"></path></g></g></g></g></svg>