<?xml version="1.0" encoding="UTF-8" standalone="no"?>
<!DOCTYPE svg PUBLIC "-//W3C//DTD SVG 1.1//EN" "http://www.w3.org/Graphics/SVG/1.1/DTD/svg11.dtd">
<svg version="1.1" xmlns="http://www.w3.org/2000/svg" xmlns:xlink="http://www.w3.org/1999/xlink" preserveAspectRatio="xMidYMid meet" viewBox="0 0 1128 832" width="1128" height="832"><defs><path d="M469.24 752.88L469.81 747.89L479.24 665.44L650.37 665.44L662.96 747.89L663.92 754.13L664.11 755.38L664.11 755.38L469.24 752.88Z" id="clfxAP0Rs"></path><path d="M566.68 754.13L469.24 752.88L469.81 747.89L662.96 747.89L663.92 754.13L663.92 754.13L566.68 754.13Z" id="k9zByrtOtX"></path><path d="M695.34 749.14C695.34 749.14 695.34 749.14 695.34 749.14C695.34 752.88 695.34 754.96 695.34 755.38C695.34 755.38 695.34 755.38 695.34 755.38C540.2 755.38 454 755.38 436.77 755.38C436.77 755.38 436.77 755.38 436.77 755.38C436.77 751.63 436.77 749.55 436.77 749.14C436.77 749.14 436.77 749.14 436.77 749.14C591.91 749.14 678.1 749.14 695.34 749.14Z" id="aY1T5HlR"></path><path d="M942.05 170.26C942.09 161.28 934.85 153.96 925.87 153.92C925.87 153.92 925.87 153.92 925.87 153.92C853.65 153.92 275.96 153.92 203.74 153.92C194.76 153.95 187.52 161.27 187.55 170.24C187.55 170.25 187.55 170.25 187.55 170.26C187.55 199.44 187.55 345.34 187.55 607.96L942.05 607.96C942.05 374.52 942.05 228.62 942.05 170.26Z" id="al0WSE5kh"></path><path d="M187.55 603.61C187.55 634.37 187.55 651.46 187.55 654.88C187.55 663.82 194.8 671.07 203.74 671.07C203.74 671.07 203.74 671.07 203.74 671.07C275.96 671.07 853.65 671.07 925.87 671.07C934.8 671.06 942.05 663.82 942.05 654.88C942.05 651.46 942.05 634.37 942.05 603.61L187.55 603.61Z" id="k3i3JGmUUY"></path><path d="M914.76 181.44C914.76 181.44 914.76 181.44 914.76 181.44C914.76 417.53 914.76 548.69 914.76 574.92C914.76 574.92 914.76 574.92 914.76 574.92C497.3 574.92 265.37 574.92 218.98 574.92C218.98 574.92 218.98 574.92 218.98 574.92C218.98 338.83 218.98 207.67 218.98 181.44C218.98 181.44 218.98 181.44 218.98 181.44C636.45 181.44 868.38 181.44 914.76 181.44Z" id="bIAnAid5"></path><path d="M581.82 645.18C581.82 645.18 581.82 645.18 581.82 645.18C582.3 644.56 582.74 643.92 583.13 643.25C582.51 643.15 579.43 642.64 573.87 641.73C579.87 641.78 583.2 641.8 583.87 641.81C585.82 637.59 585.93 632.75 584.19 628.44C583.29 628.9 578.82 631.23 570.77 635.43C578.2 629.98 582.32 626.94 583.15 626.34C578.46 618.29 568.14 615.57 560.09 620.26C552.05 624.95 549.33 635.28 554.02 643.32C554.4 643.98 554.83 644.61 555.3 645.21C555.3 645.21 555.3 645.21 555.3 645.21C558.5 649.26 563.38 651.62 568.55 651.61C573.72 651.61 578.62 649.24 581.82 645.18Z" id="jqk8jWl0b"></path><path d="M663.15 749.14L651.23 671.07L585.42 671.07L585.42 671.07L663.15 749.14Z" id="a1D2ls5M50"></path><path d="M693.31 252.39C695.05 252.39 695.91 253.26 695.91 254.99C695.91 416.16 695.91 505.7 695.91 523.61C695.91 525.34 695.05 526.21 693.31 526.21C422.42 526.21 271.92 526.21 241.82 526.21C240.09 526.21 239.22 525.34 239.22 523.61C239.22 362.44 239.22 272.9 239.22 254.99C239.22 253.26 240.09 252.39 241.82 252.39C512.72 252.39 663.21 252.39 693.31 252.39Z" id="bfqq3tmH9"></path><path d="M914.76 181.44C914.76 181.44 914.76 181.44 914.76 181.44C914.76 195.23 914.76 202.89 914.76 204.42C914.76 204.42 914.76 204.42 914.76 204.42C497.45 204.42 265.6 204.42 219.23 204.42C219.23 204.42 219.23 204.42 219.23 204.42C219.23 190.63 219.23 182.97 219.23 181.44C219.23 181.44 219.23 181.44 219.23 181.44C636.55 181.44 868.4 181.44 914.76 181.44Z" id="a54yqx1L6"></path><path d="M242.03 184.05C242.55 184.05 242.81 184.31 242.81 184.83C242.81 192.28 242.81 196.43 242.81 197.26C242.81 197.78 242.55 198.04 242.03 198.04C230.97 198.04 224.83 198.04 223.6 198.04C223.08 198.04 222.82 197.78 222.82 197.26C222.82 189.8 222.82 185.65 222.82 184.83C222.82 184.31 223.08 184.05 223.6 184.05C234.66 184.05 240.8 184.05 242.03 184.05Z" id="b1WZwX8iox"></path><path d="M669.35 185.44C669.74 185.44 669.93 185.63 669.93 186.01C669.93 193.71 669.93 197.99 669.93 198.85C669.93 199.23 669.74 199.43 669.35 199.43C544.13 199.43 474.56 199.43 460.65 199.43C460.26 199.43 460.07 199.23 460.07 198.85C460.07 191.15 460.07 186.87 460.07 186.01C460.07 185.63 460.26 185.44 460.65 185.44C585.87 185.44 655.44 185.44 669.35 185.44Z" id="b3UKvLUSH"></path><path d="M663.7 193.87L663.19 193.87C663.08 193.77 663.02 193.72 663 193.71C663.65 192.95 664 191.99 664 190.99C663.99 188.71 662.12 186.87 659.84 186.88C657.55 186.9 655.71 188.77 655.73 191.05C655.75 193.33 657.6 195.16 659.88 195.16C660.87 195.15 661.83 194.8 662.59 194.16C662.61 194.17 662.67 194.22 662.78 194.32L662.78 194.84L665.98 198.04L666.98 197.04L663.7 193.87ZM656.97 190.99C656.96 189.4 658.25 188.1 659.85 188.09C661.44 188.09 662.74 189.38 662.74 190.97C662.74 190.98 662.74 190.98 662.74 190.99C662.76 192.57 661.48 193.86 659.91 193.87C659.89 193.87 659.88 193.87 659.87 193.87C658.27 193.87 656.97 192.59 656.97 190.99Z" id="avkgXmS49"></path><path d="M904.77 185.44C900.91 185.44 897.78 188.57 897.78 192.43C897.78 196.29 900.91 199.43 904.77 199.43C908.63 199.43 911.77 196.29 911.77 192.43C911.77 188.57 908.63 185.44 904.77 185.44Z" id="b26zFwRmZ0"></path><path d="M791.42 229.41C793.04 229.41 793.85 230.21 793.85 231.83C793.85 255.3 793.85 268.34 793.85 270.95C793.85 272.57 793.04 273.38 791.42 273.38C755.36 273.38 735.32 273.38 731.32 273.38C729.7 273.38 728.89 272.57 728.89 270.95C728.89 247.48 728.89 234.44 728.89 231.83C728.89 230.21 729.7 229.41 731.32 229.41C767.38 229.41 787.41 229.41 791.42 229.41Z" id="elgIYLm2W"></path><path d="M894.17 229.41C894.57 229.41 894.78 229.61 894.78 230.01C894.78 233.48 894.78 235.41 894.78 235.79C894.78 236.2 894.57 236.4 894.17 236.4C844.53 236.4 816.96 236.4 811.44 236.4C811.04 236.4 810.83 236.2 810.83 235.79C810.83 232.33 810.83 230.4 810.83 230.01C810.83 229.61 811.04 229.41 811.44 229.41C861.08 229.41 888.65 229.41 894.17 229.41Z" id="c23p590Ajx"></path><path d="M894.17 244.4C894.57 244.4 894.78 244.6 894.78 245C894.78 248.47 894.78 250.4 894.78 250.78C894.78 251.19 894.57 251.39 894.17 251.39C844.53 251.39 816.96 251.39 811.44 251.39C811.04 251.39 810.83 251.19 810.83 250.78C810.83 247.32 810.83 245.39 810.83 245C810.83 244.6 811.04 244.4 811.44 244.4C861.08 244.4 888.65 244.4 894.17 244.4Z" id="a7KPd7A8zO"></path><path d="M894.17 259.39C894.57 259.39 894.78 259.59 894.78 259.99C894.78 263.46 894.78 265.39 894.78 265.77C894.78 266.18 894.57 266.38 894.17 266.38C844.53 266.38 816.96 266.38 811.44 266.38C811.04 266.38 810.83 266.18 810.83 265.77C810.83 262.31 810.83 260.38 810.83 259.99C810.83 259.59 811.04 259.39 811.44 259.39C861.08 259.39 888.65 259.39 894.17 259.39Z" id="k4xhH2Yn4s"></path><path d="M791.42 298.36C793.04 298.36 793.85 299.17 793.85 300.79C793.85 324.26 793.85 337.29 793.85 339.9C793.85 341.52 793.04 342.33 791.42 342.33C755.36 342.33 735.32 342.33 731.32 342.33C729.7 342.33 728.89 341.52 728.89 339.9C728.89 316.43 728.89 303.39 728.89 300.79C728.89 299.17 729.7 298.36 731.32 298.36C767.38 298.36 787.41 298.36 791.42 298.36Z" id="a3FC0YAzD"></path><path d="M894.17 298.36C894.57 298.36 894.78 298.56 894.78 298.97C894.78 302.43 894.78 304.36 894.78 304.74C894.78 305.15 894.57 305.35 894.17 305.35C844.53 305.35 816.96 305.35 811.44 305.35C811.04 305.35 810.83 305.15 810.83 304.74C810.83 301.28 810.83 299.35 810.83 298.97C810.83 298.56 811.04 298.36 811.44 298.36C861.08 298.36 888.65 298.36 894.17 298.36Z" id="c6I7pZOgQ"></path><path d="M894.17 313.35C894.57 313.35 894.78 313.55 894.78 313.96C894.78 317.42 894.78 319.35 894.78 319.73C894.78 320.14 894.57 320.34 894.17 320.34C844.53 320.34 816.96 320.34 811.44 320.34C811.04 320.34 810.83 320.14 810.83 319.73C810.83 316.27 810.83 314.34 810.83 313.96C810.83 313.55 811.04 313.35 811.44 313.35C861.08 313.35 888.65 313.35 894.17 313.35Z" id="g1pdPcEr5D"></path><path d="M894.12 328.34C894.56 328.34 894.78 328.56 894.78 329C894.78 332.4 894.78 334.3 894.78 334.67C894.78 335.11 894.56 335.33 894.12 335.33C844.54 335.33 817 335.33 811.49 335.33C811.05 335.33 810.83 335.11 810.83 334.67C810.83 331.27 810.83 329.38 810.83 329C810.83 328.56 811.05 328.34 811.49 328.34C861.07 328.34 888.61 328.34 894.12 328.34Z" id="cYQX9iDqH"></path><path d="M791.42 367.31C793.04 367.31 793.85 368.12 793.85 369.74C793.85 393.21 793.85 406.25 793.85 408.85C793.85 410.47 793.04 411.28 791.42 411.28C755.36 411.28 735.32 411.28 731.32 411.28C729.7 411.28 728.89 410.47 728.89 408.85C728.89 385.39 728.89 372.35 728.89 369.74C728.89 368.12 729.7 367.31 731.32 367.31C767.38 367.31 787.41 367.31 791.42 367.31Z" id="a4wZvgHfb"></path><path d="M894.12 367.31C894.56 367.31 894.78 367.53 894.78 367.97C894.78 371.38 894.78 373.27 894.78 373.65C894.78 374.09 894.56 374.31 894.12 374.31C844.54 374.31 817 374.31 811.49 374.31C811.05 374.31 810.83 374.09 810.83 373.65C810.83 370.24 810.83 368.35 810.83 367.97C810.83 367.53 811.05 367.31 811.49 367.31C861.07 367.31 888.61 367.31 894.12 367.31Z" id="c1IFFHiSX"></path><path d="M894.12 382.3C894.56 382.3 894.78 382.52 894.78 382.96C894.78 386.37 894.78 388.26 894.78 388.64C894.78 389.08 894.56 389.3 894.12 389.3C844.54 389.3 817 389.3 811.49 389.3C811.05 389.3 810.83 389.08 810.83 388.64C810.83 385.23 810.83 383.34 810.83 382.96C810.83 382.52 811.05 382.3 811.49 382.3C861.07 382.3 888.61 382.3 894.12 382.3Z" id="eUqhySi7K"></path><path d="M894.12 397.29C894.56 397.29 894.78 397.51 894.78 397.95C894.78 401.36 894.78 403.25 894.78 403.63C894.78 404.07 894.56 404.29 894.12 404.29C844.54 404.29 817 404.29 811.49 404.29C811.05 404.29 810.83 404.07 810.83 403.63C810.83 400.22 810.83 398.33 810.83 397.95C810.83 397.51 811.05 397.29 811.49 397.29C861.07 397.29 888.61 397.29 894.12 397.29Z" id="e30NHUrZLH"></path><path d="M791.42 436.27C793.04 436.27 793.85 437.08 793.85 438.69C793.85 462.16 793.85 475.2 793.85 477.81C793.85 479.43 793.04 480.24 791.42 480.24C755.36 480.24 735.32 480.24 731.32 480.24C729.7 480.24 728.89 479.43 728.89 477.81C728.89 454.34 728.89 441.3 728.89 438.69C728.89 437.08 729.7 436.27 731.32 436.27C767.38 436.27 787.41 436.27 791.42 436.27Z" id="d4lW5lzte"></path><path d="M894.12 436.27C894.56 436.27 894.78 436.49 894.78 436.93C894.78 440.33 894.78 442.22 894.78 442.6C894.78 443.04 894.56 443.26 894.12 443.26C844.54 443.26 817 443.26 811.49 443.26C811.05 443.26 810.83 443.04 810.83 442.6C810.83 439.2 810.83 437.3 810.83 436.93C810.83 436.49 811.05 436.27 811.49 436.27C861.07 436.27 888.61 436.27 894.12 436.27Z" id="c2s3nBQhb"></path><path d="M894.12 451.26C894.56 451.26 894.78 451.48 894.78 451.92C894.78 455.32 894.78 457.21 894.78 457.59C894.78 458.03 894.56 458.25 894.12 458.25C844.54 458.25 817 458.25 811.49 458.25C811.05 458.25 810.83 458.03 810.83 457.59C810.83 454.19 810.83 452.29 810.83 451.92C810.83 451.48 811.05 451.26 811.49 451.26C861.07 451.26 888.61 451.26 894.12 451.26Z" id="b1pDKgrhnJ"></path><path d="M894.12 466.25C894.56 466.25 894.78 466.47 894.78 466.91C894.78 470.31 894.78 472.2 894.78 472.58C894.78 473.02 894.56 473.24 894.12 473.24C844.54 473.24 817 473.24 811.49 473.24C811.05 473.24 810.83 473.02 810.83 472.58C810.83 469.18 810.83 467.28 810.83 466.91C810.83 466.47 811.05 466.25 811.49 466.25C861.07 466.25 888.61 466.25 894.12 466.25Z" id="d1TF6HnSix"></path><path d="M791.42 505.22C793.04 505.22 793.85 506.03 793.85 507.65C793.85 531.12 793.85 544.15 793.85 546.76C793.85 548.38 793.04 549.19 791.42 549.19C755.36 549.19 735.32 549.19 731.32 549.19C729.7 549.19 728.89 548.38 728.89 546.76C728.89 523.29 728.89 510.26 728.89 507.65C728.89 506.03 729.7 505.22 731.32 505.22C767.38 505.22 787.41 505.22 791.42 505.22Z" id="oK5AhDi9"></path><path d="M894.12 505.22C894.56 505.22 894.78 505.44 894.78 505.88C894.78 509.28 894.78 511.18 894.78 511.56C894.78 511.99 894.56 512.21 894.12 512.21C844.54 512.21 817 512.21 811.49 512.21C811.05 512.21 810.83 511.99 810.83 511.56C810.83 508.15 810.83 506.26 810.83 505.88C810.83 505.44 811.05 505.22 811.49 505.22C861.07 505.22 888.61 505.22 894.12 505.22Z" id="g7V58j2gwn"></path><path d="M894.12 520.21C894.56 520.21 894.78 520.43 894.78 520.87C894.78 524.27 894.78 526.17 894.78 526.55C894.78 526.98 894.56 527.2 894.12 527.2C844.54 527.2 817 527.2 811.49 527.2C811.05 527.2 810.83 526.98 810.83 526.55C810.83 523.14 810.83 521.25 810.83 520.87C810.83 520.43 811.05 520.21 811.49 520.21C861.07 520.21 888.61 520.21 894.12 520.21Z" id="acCr3zRBP"></path><path d="M894.12 535.2C894.56 535.2 894.78 535.42 894.78 535.86C894.78 539.26 894.78 541.16 894.78 541.54C894.78 541.97 894.56 542.19 894.12 542.19C844.54 542.19 817 542.19 811.49 542.19C811.05 542.19 810.83 541.97 810.83 541.54C810.83 538.13 810.83 536.24 810.83 535.86C810.83 535.42 811.05 535.2 811.49 535.2C861.07 535.2 888.61 535.2 894.12 535.2Z" id="d6Es8tZJoY"></path><path d="M446.79 389.71C446.79 389.71 450.49 409.69 442.23 416.22C442.23 416.22 449.23 461.86 474.39 457.29C474.39 457.29 509.81 419.92 509.81 419.92C509.81 419.92 484.6 414.7 493.95 388.19C484.52 388.49 456.22 389.4 446.79 389.71Z" id="c23J0N33b"></path><path d="M446.79 389.71C446.79 389.71 450.49 409.69 442.23 416.22C442.23 416.22 449.23 461.86 474.39 457.29C474.39 457.29 509.81 419.92 509.81 419.92C509.81 419.92 484.6 414.7 493.95 388.19C484.52 388.49 456.22 389.4 446.79 389.71Z" id="c1HjlqAQZs"></path><path d="M469.48 320.84C446.44 320.84 427.76 339.52 427.76 362.57C427.76 385.61 446.44 404.29 469.48 404.29C492.52 404.29 511.2 385.61 511.2 362.57C511.2 339.52 492.52 320.84 469.48 320.84Z" id="e1A7ecqnGJ"></path><path d="M537.63 470.33L399.86 470.33C399.86 454.09 399.86 445.07 399.86 443.26C399.86 436.24 404.06 429.91 410.52 427.17C410.92 427 414.08 425.66 414.47 425.49C424.46 421.24 436.61 415.95 440.57 413.75C441.01 413.53 441.42 413.27 441.79 412.96C443.96 410.79 443.53 413.61 443.53 413.61C443.53 413.61 443.47 414.15 443.43 415.08C443.19 421.47 444.11 446.56 473.52 444.47C502.21 442.47 503.5 423.06 503.21 417.36C503.2 416.83 503.15 416.3 503.08 415.78C505.07 416.25 507.01 416.89 508.89 417.68C514.88 419.9 523.74 423.45 526.11 425.13C526.85 425.65 527.75 426.19 528.72 426.74C529.84 427.36 530.87 428.1 531.82 428.95C535.52 432.27 537.63 437 537.63 441.97C537.63 445.75 537.63 455.21 537.63 470.33Z" id="a2ePdJQm2Q"></path><path d="M471.35 450.56C442.07 451.14 440.37 422.02 440.56 413.75C441 413.54 441.42 413.27 441.79 412.96C443.97 410.79 443.53 413.61 443.53 413.61C443.53 413.61 439.84 446.86 473.51 444.47C507.18 442.08 503.04 415.79 503.04 415.79C503.04 415.63 505.55 416.5 508.89 417.68C506.46 428.93 498.83 450.01 471.35 450.56Z" id="b7bw8Mo7y"></path><path d="M427.2 367.49C428.72 369.62 428.95 372.19 429.14 374.65C430.95 375.03 431.97 372.98 432.14 371.43C432.81 365.12 432.86 358.7 434.98 352.6C437.1 346.51 441.72 340.61 448.83 338.28C451.26 337.44 453.85 337.19 456.39 337.56C457.9 337.81 459.32 338.34 460.82 338.56C466.02 339.42 471.66 336.96 476.53 338.67C479.59 339.75 481.53 342.24 482.96 344.73C483.58 346.07 484.42 347.3 485.45 348.36C487.52 350.21 490.76 350.69 493.73 351.27C496.7 351.85 499.93 352.86 501.2 355.15C502.34 357.22 501.5 359.61 501.12 361.85C500.54 365.39 501.13 369.03 502.81 372.21C503.36 373.21 504.48 374.42 505.81 374.09C506.41 373.89 506.91 373.48 507.23 372.94C510.64 368.16 510.55 361.95 514.82 357.64C516.25 356.2 518.1 355.08 519.49 353.64C521.63 351.48 522.53 348.38 521.91 345.41C521.14 342.11 518.5 339.41 516.37 336.51C513.61 332.84 511.59 328.66 510.45 324.21C510.25 323.69 510.25 323.12 510.45 322.6C510.85 322.08 511.37 321.65 511.97 321.36C514.36 319.76 515.19 316.62 513.9 314.04C512.7 311.57 510.04 309.69 507.04 308.57C504 307.57 500.86 306.9 497.68 306.57C495.58 306.87 493.12 305.68 492.47 304.01C492.18 303.26 492.18 302.45 491.89 301.7C491.09 300.17 489.6 299.13 487.89 298.9C486.1 298.61 484.27 298.74 482.55 299.28C480.55 299.84 478.28 300.68 476.55 299.7C475.64 299.19 475.14 298.26 474.16 297.84C472.16 297 470.1 298.7 468.67 300.1C467.3 301.57 465.61 302.7 463.73 303.43C461.72 304.19 459.48 304.04 457.59 303.02C456.22 302.15 455.53 300.75 454.44 299.64C452.39 297.8 449.75 296.74 447 296.64C444.17 296.49 441.33 296.8 438.6 297.56C433.38 298.83 428.4 300.92 423.84 303.76C421.54 305.02 419.59 306.83 418.17 309.02C417.33 310.71 416.89 312.56 416.9 314.45C416.68 320.35 418.64 326.57 423.75 330.71C420.63 332.01 419.58 335.19 418.85 338.02C417.68 342.54 416.51 347.13 416.95 351.72C417.17 354.1 417.82 356.48 417.47 358.85C417.19 359.96 417.03 361.11 417.01 362.26C417.31 363.55 418.37 364.53 419.68 364.74C422.51 364.04 425.49 365.12 427.2 367.49Z" id="bVHBryNU7"></path><path d="M519.46 346.21C518.07 347.67 516.22 348.79 514.79 350.2C510.52 354.48 510.61 360.74 507.2 365.51C506.88 366.05 506.38 366.46 505.78 366.65C504.48 366.99 503.36 365.81 502.78 364.77C502.12 363.51 501.62 362.17 501.29 360.78C501.22 361.13 501.15 361.48 501.09 361.78C500.51 365.32 501.1 368.96 502.78 372.14C503.33 373.14 504.45 374.35 505.78 374.02C506.38 373.82 506.88 373.41 507.2 372.87C510.61 368.09 510.52 361.88 514.79 357.57C516.22 356.13 518.07 355.01 519.46 353.57C521.6 351.41 522.5 348.31 521.88 345.34C521.73 344.72 521.52 344.13 521.26 343.55C520.81 344.53 520.2 345.43 519.46 346.21Z" id="d48fwYfhj"></path><path d="M510.43 315.21C510.23 315.72 510.23 316.29 510.43 316.81C510.82 318.36 511.33 319.88 511.94 321.36C511.94 321.36 511.94 321.36 511.94 321.36C514.33 319.76 515.16 316.62 513.87 314.04C513.68 313.63 513.45 313.24 513.17 312.87C512.82 313.29 512.41 313.66 511.95 313.97C511.35 314.26 510.83 314.68 510.43 315.21Z" id="a53VC9fNsm"></path><path d="M417.26 311.65C417.08 312.55 416.98 313.46 416.96 314.37C416.73 318.73 417.88 323.06 420.25 326.73C420.96 325.17 422.23 323.92 423.81 323.23C420.26 320.31 417.93 316.19 417.26 311.65Z" id="aKoZqjQ8e"></path><path d="M501.2 347.79C499.93 345.49 496.7 344.49 493.73 343.91C490.76 343.33 487.52 342.84 485.45 340.99C484.42 339.93 483.58 338.7 482.96 337.36C481.55 334.87 479.59 332.37 476.53 331.31C471.66 329.6 466.02 332.05 460.82 331.2C459.32 330.95 457.9 330.43 456.39 330.2C453.85 329.83 451.26 330.07 448.83 330.92C441.72 333.26 437.1 339.15 434.98 345.24C432.86 351.32 432.81 357.75 432.14 364.06C431.97 365.6 430.95 367.66 429.14 367.28C428.95 364.81 428.72 362.29 427.2 360.12C425.49 357.75 422.51 356.67 419.68 357.38C418.84 357.19 418.09 356.71 417.57 356.03C417.68 356.95 417.68 357.87 417.57 358.79C417.29 359.9 417.13 361.05 417.11 362.2C417.37 363.5 418.41 364.52 419.72 364.76C422.55 364.06 425.53 365.14 427.24 367.51C428.76 369.64 428.99 372.21 429.18 374.67C430.99 375.05 432.01 373 432.18 371.45C432.85 365.14 432.9 358.72 435.02 352.62C437.14 346.53 441.76 340.63 448.87 338.3C451.3 337.46 453.89 337.21 456.43 337.58C457.94 337.83 459.36 338.36 460.86 338.58C466.06 339.44 471.7 336.98 476.57 338.69C479.63 339.77 481.57 342.26 483 344.75C483.62 346.09 484.46 347.32 485.49 348.38C487.56 350.23 490.8 350.71 493.77 351.29C496.74 351.87 499.76 352.81 501.09 354.93C501.04 354.78 501.09 354.63 501.12 354.48C501.5 352.23 502.34 349.84 501.2 347.79Z" id="bajoZIqy"></path><path d="M417.2 345.81C416.91 347.74 416.84 349.7 417.01 351.64C417.01 352.14 417.12 352.64 417.19 353.13C417.3 352.54 417.45 351.96 417.53 351.37C417.69 349.51 417.58 347.64 417.2 345.81Z" id="c1hXOtaz0y"></path><path d="M368.62 492.62C368.62 492.34 368.85 492.11 369.13 492.11C369.34 492.11 370.98 492.11 371.18 492.11C371.46 492.11 371.69 492.34 371.69 492.62C371.69 493.12 371.69 495.62 371.69 500.12C376.68 495.5 379.45 492.93 380 492.42C380.58 491.94 381.44 492.02 381.92 492.59C382.11 492.82 382.22 493.12 382.23 493.42C382.23 495.05 382.23 508.12 382.23 509.76C382.21 510.51 381.58 511.09 380.83 511.07C380.53 511.06 380.24 510.95 380 510.76C379.45 510.25 376.68 507.69 371.69 503.1C371.69 507.58 371.69 510.07 371.69 510.57C371.69 510.85 371.46 511.08 371.18 511.08C370.98 511.08 369.34 511.08 369.13 511.08C368.88 511.08 368.67 510.9 368.62 510.66C368.62 507.05 368.62 494.42 368.62 492.62Z" id="g2Rdv2fwv2"></path><path d="M569.52 510.66C569.52 510.94 569.29 511.17 569.01 511.17C569 511.17 569 511.17 569 511.17C568.8 511.17 567.2 511.17 567 511.17C566.72 511.17 566.49 510.94 566.49 510.66C566.49 510.16 566.49 507.65 566.49 503.15C561.5 507.77 558.73 510.33 558.17 510.85C557.59 511.33 556.73 511.24 556.25 510.66C556.06 510.43 555.95 510.14 555.94 509.85C555.94 508.21 555.94 495.09 555.94 493.45C555.97 492.69 556.61 492.11 557.36 492.14C557.66 492.15 557.94 492.26 558.17 492.45C558.73 492.96 561.5 495.51 566.49 500.1C566.49 495.63 566.49 493.15 566.49 492.65C566.49 492.37 566.72 492.14 567 492.14C567.2 492.14 568.8 492.14 569 492.14C569.27 492.13 569.5 492.34 569.52 492.62C569.52 496.23 569.52 508.85 569.52 510.66Z" id="i1rShuwaai"></path><path d="M461.61 511.44C460.51 511.44 459.61 510.54 459.61 509.44C459.61 507.94 459.61 496 459.61 494.51C459.61 493.4 460.51 492.51 461.61 492.51C462.02 492.51 465.27 492.51 465.68 492.51C466.78 492.51 467.68 493.4 467.68 494.51C467.68 496 467.68 507.94 467.68 509.44C467.68 510.54 466.78 511.44 465.68 511.44C464.86 511.44 462.02 511.44 461.61 511.44ZM478.57 494.51C478.57 493.4 477.67 492.51 476.57 492.51C476.16 492.51 472.87 492.51 472.46 492.51C471.36 492.51 470.46 493.4 470.46 494.51C470.46 496 470.46 507.94 470.46 509.44C470.46 510.54 471.36 511.44 472.46 511.44C472.87 511.44 476.12 511.44 476.53 511.44C477.63 511.46 478.55 510.58 478.57 509.48C478.57 509.46 478.57 509.45 478.57 509.44C478.57 506.45 478.57 496 478.57 494.51Z" id="c16Y7AxqUb"></path><path d="M588.98 468.3C588.98 468.3 588.98 468.3 588.98 468.3C588.98 469.91 588.98 470.79 588.98 470.97C588.98 470.97 588.98 470.97 588.98 470.97C445.08 470.97 365.13 470.97 349.15 470.97C349.15 470.97 349.15 470.97 349.15 470.97C349.15 469.37 349.15 468.48 349.15 468.3C349.15 468.3 349.15 468.3 349.15 468.3C493.05 468.3 572.99 468.3 588.98 468.3Z" id="hiMiec69G"></path><path d="M423.21 463.31C419.71 463.31 416.88 466.14 416.88 469.63C416.88 473.13 419.71 475.96 423.21 475.96C426.7 475.96 429.53 473.13 429.53 469.63C429.53 466.14 426.7 463.31 423.21 463.31Z" id="d8RpNM8vR"></path><path d="M423.21 468.3C423.21 468.3 423.21 468.3 423.21 468.3C423.21 469.91 423.21 470.79 423.21 470.97C423.21 470.97 423.21 470.97 423.21 470.97C378.77 470.97 354.08 470.97 349.15 470.97C349.15 470.97 349.15 470.97 349.15 470.97C349.15 469.37 349.15 468.48 349.15 468.3C349.15 468.3 349.15 468.3 349.15 468.3C393.58 468.3 418.27 468.3 423.21 468.3Z" id="d4rbZiBKx"></path><path d="M317.09 806.74C312.75 806.24 308.71 804.28 305.63 801.18C303.66 799.18 302.1 796.8 301.06 794.18C301.72 794.42 302.38 794.67 303.06 794.94C301.06 790.28 303.16 785.04 305 780.32C309.67 768.33 312.95 758.62 313.84 756.21C320.83 735.73 326.83 714.44 326.7 692.65C326.7 684.78 325.25 677.33 324.97 669.47C324.76 663.63 325.66 657.81 325.62 651.96C325.62 651.14 325.62 650.33 325.56 649.51C329.18 646.34 331.13 641.67 330.83 636.86C330.73 635.63 330.55 634.4 330.3 633.18C329.94 631.07 329.48 628.99 328.9 626.93C328.24 624.76 327.34 622.68 326.57 620.56C325.08 616.45 324.07 612.18 322.8 608C323.27 608.05 323.73 608.17 324.16 608.37C323.84 607.99 323.62 607.54 323.52 607.06C322.78 604.4 322.37 601.66 322.32 598.9C322.41 598.86 323.09 598.55 323.17 598.52C323.56 595.82 323.42 593.08 322.76 590.43C323.24 586.15 323.99 581.83 324.45 577.56C324.62 575.96 324.55 573.95 323.08 573.56C322.78 571.28 322.66 568.96 322.54 566.65C321.91 554.57 321.42 544.91 321.29 542.49C320.87 534.41 320.45 526.34 320.29 518.24C320.18 513.1 320.13 507.79 318.91 502.87C319.12 500.52 318.88 498.14 318.2 495.88C316.34 489.99 310.56 485.32 304.71 485.65C302.96 483.15 300.8 480.97 298.32 479.2C299.49 476.58 300.89 473.88 302.04 471.76C311.41 468.71 318.27 459.47 318.27 448.48C318.28 444.45 317.34 440.48 315.52 436.9C315.69 436.45 315.84 436 315.96 435.55C316.46 433.39 316.3 431.13 315.51 429.06C315.23 428.27 314.89 427.49 314.51 426.74C314.25 426.24 313.97 425.74 313.68 425.26C313.63 425.19 313.22 424.57 313.17 424.49C312.86 424.02 312.54 423.57 312.17 423.13C311.46 422.18 310.7 421.27 309.89 420.4C308.9 419.32 307.8 418.34 306.61 417.48C305.01 416.28 303.17 415.44 301.22 414.99C300.09 414.77 298.94 414.66 297.79 414.68C297.1 414.68 296.4 414.68 295.71 414.74C294.31 414.82 292.92 414.92 291.53 414.91C291.07 414.91 290.6 414.91 290.15 414.84C287.7 414.51 285.28 414.01 282.91 413.33C282.79 413.31 281.83 413.11 281.71 413.08C281.3 413 280.9 412.93 280.49 412.88C279.4 412.74 278.29 412.67 277.18 412.68C277.07 412.68 276.19 412.68 276.07 412.68C274.97 412.74 273.86 412.85 272.77 413.02C272.66 413.04 271.78 413.17 271.67 413.19C268.89 413.63 266.19 414.43 263.62 415.58C263.29 415.73 262.95 415.9 262.62 416.08C262.6 416.09 262.44 416.18 262.42 416.19C262.15 416.33 261.88 416.48 261.62 416.64C261.61 416.65 261.56 416.68 261.47 416.73L260.63 417.27C260.58 417.3 260.56 417.32 260.56 417.32C252.62 422.66 247.93 432.77 246.74 442.8C245.42 454.06 247.74 465.42 250.07 476.5C250.28 477.5 251.96 485.49 252.17 486.49C252.26 486.94 252.36 487.38 252.45 487.83C249.5 490.25 247.23 493.4 245.87 496.97C243.87 501.96 243.82 507.37 243.98 512.78C243.98 513.88 244.04 514.98 244.15 516.08C243.9 518.16 243.68 520.25 243.54 522.35C242.91 532.04 244.09 541.78 243.78 551.5C243.54 558.98 242.41 566.49 242.96 573.92C243.44 580.52 245.21 586.91 246.95 593.28C247.21 594.19 249.22 601.45 249.47 602.35C249.55 602.82 249.77 603.26 250.1 603.6C250.52 603.88 251.02 603.98 251.51 603.89C249.87 607.61 248.5 611.45 247.41 615.37C246.66 617.76 246.17 620.24 245.94 622.74C245.61 627.32 246.66 631.86 247.72 636.31C250.12 646.3 252.02 654.37 252.5 656.38C254.18 663.42 255.51 669.05 255.85 670.46C258.05 679.71 260.26 689.03 260.67 698.55C260.89 703.33 260.56 708.13 259.67 712.83C256.78 726.92 256.36 741.4 258.43 755.63C260.09 767.64 262.8 779.48 266.51 791.02C267.32 790.59 268.14 790.19 268.98 789.82C268.94 789.88 268.66 790.4 268.63 790.47C266.9 793.47 265.75 796 265.43 796.61C264.77 797.98 264.2 799.38 263.72 800.82C262.44 804.82 262.24 809.07 262.06 813.28C261.97 814.09 262.04 814.91 262.27 815.69C262.82 817.2 264.4 817.97 265.87 818.39C270.19 819.62 274.68 819.18 279.16 818.6C279.18 818.7 279.21 818.79 279.25 818.89C279.8 820.4 281.37 821.17 282.85 821.59C289.03 823.35 295.54 821.69 301.91 821.09C308.27 820.49 314.53 820.93 320.65 819.46C321.57 819.26 322.44 818.93 323.25 818.46C324.83 817.36 325.98 815.75 326.53 813.91C326.72 813.43 326.85 812.93 326.91 812.42C327.16 810.23 325.29 808.31 323.31 807.58C321.31 806.85 319.18 806.97 317.09 806.74ZM300.18 721.8C295.37 732.03 291.92 742.83 289.93 753.95C288.61 761.3 287.86 768.73 287.66 776.19C287.56 781.68 287.77 787.44 285.48 792.38C285.56 792.36 286.22 792.26 286.31 792.25C286.05 792.73 285.8 793.25 285.56 793.63C285.55 793.65 285.45 793.82 285.44 793.85C284.05 791.49 283.13 788.89 282.71 786.19C282.71 786.1 282.26 786.03 281.57 785.99C278.75 770.2 277.77 754.14 278.65 738.13C278.67 736.19 278.94 734.26 279.45 732.39C279.96 730.78 280.82 729.31 281.45 727.75C282.45 725.13 283.12 722.4 283.45 719.62C284.54 712.5 284.96 705.3 284.71 698.11C284.47 691.32 286.04 684.58 287.38 677.82C288.02 674.62 288.61 671.4 288.93 668.18C288.93 668.11 288.98 667.6 288.99 667.53C294.93 677.34 299.09 688.13 301.26 699.39C302.46 704.51 302.78 709.8 302.18 715.03C301.83 717.37 301.16 719.65 300.18 721.8ZM259.73 570.89C260.69 571.74 261.58 572.67 262.38 573.67C262.78 574.11 263.07 574.64 263.22 575.21C263.52 576.67 262.31 577.91 261.32 578.98C260.89 579.44 260.49 579.93 260.12 580.44C259.9 577.16 259.68 573.88 259.44 570.61C259.61 570.77 259.7 570.87 259.73 570.89Z" id="a4WU0Krtlx"></path><linearGradient id="gradientcw5iVwuaU" gradientUnits="userSpaceOnUse" x1="286.87" y1="822.34" x2="286.87" y2="412.71"><stop style="stop-color: #808080;stop-opacity: 0.25" offset="0%"></stop><stop style="stop-color: #808080;stop-opacity: 0.12" offset="54%"></stop><stop style="stop-color: #808080;stop-opacity: 0.1" offset="100%"></stop></linearGradient><path d="M244.48 516.45C244.11 519.33 243.74 522.2 243.54 525.09C242.87 534.7 244.11 544.35 243.79 553.99C243.53 561.4 242.35 568.81 242.92 576.21C243.43 582.75 245.29 589.1 247.14 595.4C247.41 596.3 249.52 603.49 249.78 604.39C249.87 604.86 250.1 605.29 250.44 605.63C250.95 605.93 251.55 606.03 252.13 605.9C253.3 605.8 262.67 604.95 263.84 604.84C263.09 601.4 262.26 597.85 261.84 594.32C261.52 591.56 261.33 588.78 261.13 586.01C260.52 577.35 259.81 568.7 259.14 560.02C259.01 558.5 258.01 546.35 257.89 544.83C257.36 538.24 256.81 531.61 255.15 525.21C253.48 518.74 250.19 512.8 245.58 507.97C245.36 509.66 244.59 515.6 244.48 516.45Z" id="d47YvtJd9c"></path><path d="M244.48 516.45C244.11 519.33 243.74 522.2 243.54 525.09C242.87 534.7 244.11 544.35 243.79 553.99C243.53 561.4 242.35 568.81 242.92 576.21C243.43 582.75 245.29 589.1 247.14 595.4C247.41 596.3 249.52 603.49 249.78 604.39C249.87 604.86 250.1 605.29 250.44 605.63C250.95 605.93 251.55 606.03 252.13 605.9C253.3 605.8 262.67 604.95 263.84 604.84C263.09 601.4 262.26 597.85 261.84 594.32C261.52 591.56 261.33 588.78 261.13 586.01C260.52 577.35 259.81 568.7 259.14 560.02C259.01 558.5 258.01 546.35 257.89 544.83C257.36 538.24 256.81 531.61 255.15 525.21C253.48 518.74 250.19 512.8 245.58 507.97C245.36 509.66 244.59 515.6 244.48 516.45Z" id="awrOpie6h"></path><path d="M264.64 800.97C263.3 804.92 263.1 809.15 262.9 813.32C262.82 814.12 262.89 814.94 263.12 815.71C263.7 817.21 265.36 817.97 266.91 818.38C273.4 820.13 280.23 818.49 286.9 817.89C293.56 817.29 300.15 817.73 306.58 816.28C307.53 816.1 308.45 815.78 309.31 815.33C310.94 814.27 312.16 812.68 312.76 810.83C312.95 810.36 313.08 809.86 313.15 809.35C313.36 807.16 311.45 805.26 309.37 804.54C307.29 803.82 305.03 803.93 302.84 803.71C293.57 802.76 286.09 795.71 284.61 786.51C284.53 786.03 273.78 786.32 272.62 786.94C271.3 787.67 270.5 789.48 269.75 790.71C268.57 792.69 267.47 794.71 266.44 796.79C265.58 798.63 264.98 800.02 264.64 800.97Z" id="b7oRgWE0KV"></path><path d="M264.64 800.97C263.3 804.92 263.1 809.15 262.9 813.32C262.82 814.12 262.89 814.94 263.12 815.71C263.7 817.21 265.36 817.97 266.91 818.38C273.4 820.13 280.23 818.49 286.9 817.89C293.56 817.29 300.15 817.73 306.58 816.28C307.53 816.1 308.45 815.78 309.31 815.33C310.94 814.27 312.16 812.68 312.76 810.83C312.95 810.36 313.08 809.86 313.15 809.35C313.36 807.16 311.45 805.26 309.37 804.54C307.29 803.82 305.03 803.93 302.84 803.71C293.57 802.76 286.09 795.71 284.61 786.51C284.53 786.03 273.78 786.32 272.62 786.94C271.3 787.67 270.5 789.48 269.75 790.71C268.57 792.69 267.47 794.71 266.44 796.79C265.58 798.63 264.98 800.02 264.64 800.97Z" id="a2OQVoVMg2"></path><path d="M282.48 804.14C281.13 808.14 280.93 812.32 280.74 816.49C280.65 817.29 280.72 818.11 280.96 818.88C281.53 820.38 283.19 821.14 284.74 821.56C291.22 823.3 298.07 821.66 304.73 821.06C311.38 820.46 317.99 820.9 324.41 819.45C325.37 819.25 326.29 818.92 327.14 818.45C328.77 817.39 329.99 815.8 330.59 813.95C330.78 813.48 330.91 812.98 330.98 812.47C331.19 810.28 329.28 808.38 327.2 807.66C325.12 806.94 322.85 807.06 320.66 806.83C311.4 805.88 303.93 798.83 302.44 789.64C302.36 789.16 291.6 789.44 290.45 790.06C289.12 790.79 288.32 792.6 287.57 793.83C286.43 795.85 285.31 797.89 284.28 799.97C283.59 801.32 282.99 802.71 282.48 804.14Z" id="d4YWIm3MW"></path><path d="M317.28 756.77C312.9 768.82 308.92 778.27 307.99 780.66C306.05 785.34 303.87 790.54 305.94 795.15C299.95 792.88 293.85 791.54 287.55 792.59C289.95 787.69 289.72 781.99 289.83 776.6C290.03 769.2 290.82 761.83 292.18 754.56C294.3 743.49 297.93 732.77 302.97 722.69C303.98 720.57 304.69 718.31 305.06 715.98C305.87 710.84 305.24 705.56 304.17 700.48C301.87 689.24 297.49 678.53 291.27 668.9C291.27 668.96 291.22 669.47 291.21 669.54C290.84 672.75 290.3 675.94 289.6 679.1C288.19 685.79 286.54 692.48 286.79 699.21C287.05 706.34 286.61 713.48 285.47 720.52C285.1 723.29 284.38 726 283.32 728.58C282.63 730.13 281.73 731.58 281.19 733.19C280.65 735.04 280.37 736.95 280.35 738.88C279.55 755.14 280.35 771.65 283.67 787.59C278.1 787.15 272.54 788.76 267.56 791.26C263.67 779.85 260.83 768.11 259.07 756.18C256.9 742.08 257.34 727.69 260.37 713.75C261.31 709.1 261.66 704.35 261.41 699.61C260.98 690.16 258.67 680.93 256.36 671.76C256.01 670.36 253.19 659.17 252.84 657.77C250.34 647.77 248.34 639.86 247.84 637.87C246.73 633.46 245.62 628.96 245.96 624.42C246.21 621.93 246.73 619.48 247.52 617.1C250.02 609.04 253.75 601.4 258.59 594.48C277.84 595.56 297.33 593.76 316.55 592.28C317.48 592.1 318.45 592.26 319.27 592.74C319.92 593.41 320.31 594.29 320.36 595.22C321.09 599.32 326.87 632.09 327.59 636.19C328.76 641.89 329.45 647.67 329.64 653.48C329.64 659.28 328.74 665.05 328.96 670.84C329.26 678.63 330.74 686.01 330.78 693.81C330.92 715.41 324.64 736.51 317.28 756.77Z" id="dYV98Ik7c"></path><path d="M289.62 679.1C285.43 671.86 280.91 664.79 277.05 657.37C276.05 655.46 275.12 653.52 274.17 651.58C273.88 651 271.6 646.36 271.32 645.78C270.79 644.7 270.26 643.61 269.78 642.5C269 640.9 268.4 639.23 267.99 637.5C269.39 637.24 272.85 641.02 273.89 642.01C276.01 644.11 278.01 646.32 279.88 648.64C282.16 651.22 284.25 653.96 286.14 656.84C288.56 660.75 290.28 665.04 291.23 669.54C290.86 672.75 290.32 675.94 289.62 679.1Z" id="aVQNV743l"></path><path d="M298.56 491.37C298.56 491.37 264.88 488.2 264.88 488.2C264.88 488.2 284.3 471.16 282.31 464.03C280.32 456.89 307.27 470.76 307.27 470.76C305.53 474.88 296.58 487.8 298.56 491.37Z" id="d6s7EFABVA"></path><path d="M297.77 427.57C284.42 427.57 273.6 438.39 273.6 451.75C273.6 465.1 284.42 475.92 297.77 475.92C311.12 475.92 321.94 465.1 321.94 451.75C321.94 438.39 311.12 427.57 297.77 427.57Z" id="a3gDEKQ8E"></path><path d="M297.47 480.46C295.13 479.62 292.71 479.02 290.25 478.68C289.28 478.51 281.57 477.15 280.6 476.98C278.24 476.56 275.71 476.17 273.52 477.14C272.4 477.71 271.39 478.45 270.52 479.35C267.17 482.45 263.92 485.86 259.72 487.66C258.57 488.15 257.37 488.51 256.22 489C251.51 491 247.99 495.26 246 499.99C243.91 504.93 243.85 510.3 244.01 515.66C244 517.52 244.19 519.36 244.56 521.18C245.04 522.91 245.65 524.6 246.38 526.24C247.71 529.74 248.83 533.32 249.72 536.96C253.47 551.3 255.33 563.04 255.96 565.94C256.1 567.34 256.51 568.69 257.17 569.94C258.1 571.18 259.23 572.26 260.51 573.14C261.52 573.98 262.45 574.9 263.29 575.91C263.71 576.32 264.02 576.83 264.2 577.39C264.51 578.83 263.2 580.07 262.2 581.12C260.05 583.31 258.5 586.02 257.69 588.98C257.19 589.59 256.93 590.36 256.97 591.15C257.18 591.7 257.25 592.29 257.2 592.87C257 593.4 256.69 593.88 256.29 594.28C255.36 595.5 254.99 597.05 255.29 598.56C262.78 601.81 270.8 603.69 278.95 604.09C280.95 604.19 282.95 604.19 284.95 604.43C286.37 604.61 287.77 604.9 289.19 605.07C291.25 605.27 293.32 605.32 295.38 605.23C306.14 605.01 317.22 604.74 327.1 600.48C328.03 595.41 326.02 590.24 324.76 585.25C322.76 577.25 322.26 569.07 320.76 561C319.77 555.5 318.27 550.07 317.42 544.52C316.57 538.98 316.42 533.23 317.9 527.83C319.25 523.06 319.66 518.18 321.05 513.41C322.45 508.65 323.43 503.48 321.85 498.76C319.86 492.93 313.79 488.3 307.63 488.63C305.04 485.04 301.53 482.21 297.47 480.46Z" id="l4ZOoza1nZ"></path><path d="M315.61 426.68C312.61 422.93 308.79 419.56 304.11 418.62C300.3 417.85 296.35 418.78 292.47 418.47C289.05 418.2 285.75 416.96 282.34 416.47C279.25 416.14 276.12 416.25 273.07 416.82C270.16 417.25 267.33 418.04 264.62 419.18C254.33 423.74 248.3 435 246.9 446.16C245.51 457.32 247.95 468.57 250.39 479.56C250.61 480.55 252.38 488.5 252.6 489.49C254.9 499.83 257.2 510.22 257.81 520.79C258.42 531.36 257.28 542.21 252.93 551.87C266.99 544.32 277.88 531.98 283.64 517.1C285.2 513.01 286.36 508.77 288.1 504.75C289.59 501.29 291.49 498.01 292.81 494.49C294.3 490.51 295.02 486.28 294.92 482.03C294.84 478.83 294.31 475.65 294.4 472.45C294.49 469.25 295.31 465.93 297.52 463.61C299.52 461.56 302.27 460.61 304.8 459.28C308.78 457.24 312.25 454.34 314.98 450.79C316.57 448.71 316.66 447.79 317.06 445.43C317.46 443.07 318.89 441.19 319.51 438.92C320.68 434.64 318.37 430.17 315.61 426.68Z" id="b61KgZdlYM"></path><path d="M319.88 627.98C320.28 629.82 321.23 631.47 321.79 633.27C322.35 635.35 322.63 637.49 322.64 639.64C322.72 641.44 322.58 643.64 320.98 644.48C320.28 644.85 319.45 644.85 318.72 645.17C317.99 645.49 317.37 646.35 317.79 647.03C318.21 647.71 318.93 647.6 319.59 647.73C320.24 647.86 320.95 648.54 320.58 649.09C320.43 649.27 320.23 649.4 320.01 649.46C319.34 649.67 318.7 649.97 318.13 650.36C317.55 650.78 317.25 651.49 317.36 652.19C317.5 652.8 318.12 653.17 318.72 653.02C318.81 653 318.89 652.97 318.97 652.93C318.67 653.56 318.51 654.24 318.5 654.93C321.05 656.03 323.92 654.59 326.32 653.2C327.36 652.62 328.36 651.98 329.32 651.28C333.26 648.26 335.44 643.48 335.15 638.52C335.04 637.29 334.85 636.08 334.59 634.87C334.22 632.78 333.73 630.7 333.12 628.67C332.43 626.52 331.49 624.47 330.68 622.36C328.96 617.87 327.85 613.18 326.29 608.63C326.19 608.16 325.92 607.74 325.54 607.44C325.2 607.27 324.81 607.2 324.43 607.23C322.68 607.14 320.93 607.3 319.23 607.71C318.23 608.01 316.52 608.71 316.05 609.71C315.58 610.71 316.33 611.55 316.78 612.38C318.21 614.89 319.15 617.65 319.54 620.51C319.79 623 319.34 625.51 319.88 627.98Z" id="e27dZ2V9W"></path><path d="M319.19 500.86C322.62 507.11 322.66 514.57 322.82 521.7C323 529.69 323.44 537.69 323.88 545.73C324.01 548.13 325.06 567.32 325.19 569.72C325.32 572 325.44 574.29 325.77 576.56C327.31 576.95 327.37 578.95 327.2 580.56C326.09 590.33 323.34 600.4 326.2 609.8C326.31 610.28 326.54 610.73 326.87 611.1C325.42 610.64 323.87 610.62 322.4 611.04C320.97 611.34 319.6 611.87 318.16 612.2C316.34 612.61 314.28 612.79 313.04 614.2C311.64 609.97 310.52 605.66 309.69 601.28C309.01 597.29 308.82 593.17 307.2 589.47C306.55 587.98 305.67 586.6 304.88 585.18C300.69 577.7 298.63 569.26 296.62 560.92C295.72 556.97 295.5 552.89 295.98 548.87C296.27 547.03 296.44 545.18 296.48 543.32C296.36 541.36 296.1 539.41 295.71 537.49C294.86 531.84 295.26 526.07 296.88 520.59C298.38 515.5 299.7 510.15 302.88 505.87C306.05 501.59 312.6 499.15 317.91 499.08C318.42 499.61 318.85 500.21 319.19 500.86Z" id="b1m6fFYxqv"></path><path d="M320.37 500.07C323.81 506.31 323.85 513.78 324.01 520.91C324.19 528.9 324.63 536.9 325.07 544.89C325.2 547.29 326.25 566.48 326.38 568.88C326.51 571.17 326.63 573.45 326.96 575.72C328.5 576.11 328.56 578.11 328.38 579.72C327.28 589.49 324.53 599.55 327.38 608.96C327.49 609.44 327.72 609.89 328.05 610.26C326.6 609.8 325.05 609.78 323.58 610.2C322.15 610.5 320.77 611.03 319.34 611.35C317.52 611.77 315.46 611.94 314.22 613.35C312.82 609.1 311.71 604.77 310.9 600.38C310.22 596.38 310.03 592.27 308.41 588.57C307.71 587.1 306.93 585.67 306.08 584.28C301.89 576.8 299.84 568.35 297.83 560.01C296.93 556.06 296.71 551.99 297.19 547.96C297.94 544.19 297.85 540.31 296.92 536.58C296.07 530.93 296.47 525.17 298.09 519.69C299.59 514.6 300.91 509.25 304.09 504.97C307.26 500.69 313.79 498.36 319.1 498.28C319.61 498.81 320.04 499.42 320.37 500.07Z" id="dusWspqKP"></path><path d="M304.11 418.62C300.3 417.85 296.35 418.78 292.47 418.47C289.05 418.2 285.75 416.96 282.34 416.47C279.25 416.14 276.12 416.25 273.07 416.82C270.16 417.25 267.33 418.04 264.62 419.18C263.16 419.83 261.77 420.63 260.46 421.55C262.86 420.61 265.37 419.94 267.92 419.55C270.97 418.98 274.1 418.86 277.18 419.2C280.6 419.64 283.89 420.87 287.33 421.14C291.19 421.45 295.14 420.53 298.96 421.29C303.65 422.23 307.48 425.61 310.45 429.36C313.22 432.84 315.53 437.31 314.36 441.6C313.74 443.86 312.3 445.84 311.91 448.17C311.52 450.5 311.42 451.45 309.82 453.52C307.77 456.19 305.29 458.5 302.49 460.35C303.26 459.99 304.05 459.63 304.8 459.24C308.78 457.2 312.25 454.3 314.98 450.75C316.57 448.67 316.66 447.75 317.06 445.39C317.46 443.03 318.89 441.09 319.51 438.82C320.68 434.64 318.37 430.17 315.61 426.68C312.61 422.93 308.79 419.56 304.11 418.62Z" id="pkDCu7sMb"></path><path d="M298.87 462.5C296.56 463.62 294.13 464.6 292.36 466.5C290.16 468.8 289.37 472.14 289.25 475.34C289.13 478.54 289.7 481.72 289.77 484.9C289.86 489.16 289.15 493.39 287.66 497.37C286.34 500.9 284.43 504.17 282.94 507.64C281.21 511.64 280.05 515.89 278.49 519.98C273.5 532.88 264.63 543.92 253.1 551.58C253.04 551.71 252.99 551.85 252.93 551.98C266.99 544.43 277.88 532.09 283.64 517.21C285.2 513.12 286.36 508.88 288.1 504.86C289.59 501.4 291.49 498.12 292.81 494.6C294.3 490.62 295.02 486.39 294.92 482.14C294.84 478.94 294.31 475.76 294.4 472.56C294.49 469.36 295.31 465.99 297.52 463.67C297.93 463.24 298.39 462.85 298.87 462.5Z" id="e1EhHMlTB"></path></defs><g><g><g><use xlink:href="#clfxAP0Rs" opacity="1" fill="#d0d2d5" fill-opacity="1"></use><g><use xlink:href="#clfxAP0Rs" opacity="1" fill-opacity="0" stroke="#000000" stroke-width="1" stroke-opacity="0"></use></g></g><g><use xlink:href="#k9zByrtOtX" opacity="1" fill="#000000" fill-opacity="1"></use><g><use xlink:href="#k9zByrtOtX" opacity="1" fill-opacity="0" stroke="#000000" stroke-width="1" stroke-opacity="0"></use></g></g><g><use xlink:href="#aY1T5HlR" opacity="1" fill="#d0d2d5" fill-opacity="1"></use><g><use xlink:href="#aY1T5HlR" opacity="1" fill-opacity="0" stroke="#000000" stroke-width="1" stroke-opacity="0"></use></g></g><g><use xlink:href="#al0WSE5kh" opacity="1" fill="#444053" fill-opacity="1"></use><g><use xlink:href="#al0WSE5kh" opacity="1" fill-opacity="0" stroke="#000000" stroke-width="1" stroke-opacity="0"></use></g></g><g><use xlink:href="#k3i3JGmUUY" opacity="1" fill="#d0d2d5" fill-opacity="1"></use><g><use xlink:href="#k3i3JGmUUY" opacity="1" fill-opacity="0" stroke="#000000" stroke-width="1" stroke-opacity="0"></use></g></g><g><use xlink:href="#bIAnAid5" opacity="1" fill="#319795" fill-opacity="1"></use><g><use xlink:href="#bIAnAid5" opacity="1" fill-opacity="0" stroke="#000000" stroke-width="1" stroke-opacity="0"></use></g></g><g><use xlink:href="#jqk8jWl0b" opacity="1" fill="#319795" fill-opacity="1"></use><g><use xlink:href="#jqk8jWl0b" opacity="1" fill-opacity="0" stroke="#000000" stroke-width="1" stroke-opacity="0"></use></g></g><g><use xlink:href="#a1D2ls5M50" opacity="1" fill="#aeaeae" fill-opacity="1"></use><g><use xlink:href="#a1D2ls5M50" opacity="1" fill-opacity="0" stroke="#000000" stroke-width="1" stroke-opacity="0"></use></g></g><g><use xlink:href="#bfqq3tmH9" opacity="1" fill="#ffffff" fill-opacity="1"></use><g><use xlink:href="#bfqq3tmH9" opacity="1" fill-opacity="0" stroke="#000000" stroke-width="1" stroke-opacity="0"></use></g></g><g><use xlink:href="#a54yqx1L6" opacity="1" fill="#ffffff" fill-opacity="1"></use><g><use xlink:href="#a54yqx1L6" opacity="1" fill-opacity="0" stroke="#000000" stroke-width="1" stroke-opacity="0"></use></g></g><g><use xlink:href="#b1WZwX8iox" opacity="1" fill="#319795" fill-opacity="1"></use><g><use xlink:href="#b1WZwX8iox" opacity="1" fill-opacity="0" stroke="#000000" stroke-width="1" stroke-opacity="0"></use></g></g><g><use xlink:href="#b3UKvLUSH" opacity="1" fill="#319795" fill-opacity="1"></use><g><use xlink:href="#b3UKvLUSH" opacity="1" fill-opacity="0" stroke="#000000" stroke-width="1" stroke-opacity="0"></use></g></g><g><use xlink:href="#avkgXmS49" opacity="1" fill="#444053" fill-opacity="1"></use><g><use xlink:href="#avkgXmS49" opacity="1" fill-opacity="0" stroke="#000000" stroke-width="1" stroke-opacity="0"></use></g></g><g><use xlink:href="#b26zFwRmZ0" opacity="1" fill="#319795" fill-opacity="1"></use><g><use xlink:href="#b26zFwRmZ0" opacity="1" fill-opacity="0" stroke="#000000" stroke-width="1" stroke-opacity="0"></use></g></g><g><use xlink:href="#elgIYLm2W" opacity="1" fill="#ffffff" fill-opacity="1"></use><g><use xlink:href="#elgIYLm2W" opacity="1" fill-opacity="0" stroke="#000000" stroke-width="1" stroke-opacity="0"></use></g></g><g><use xlink:href="#c23p590Ajx" opacity="1" fill="#ffffff" fill-opacity="1"></use><g><use xlink:href="#c23p590Ajx" opacity="1" fill-opacity="0" stroke="#000000" stroke-width="1" stroke-opacity="0"></use></g></g><g><use xlink:href="#a7KPd7A8zO" opacity="1" fill="#ffffff" fill-opacity="1"></use><g><use xlink:href="#a7KPd7A8zO" opacity="1" fill-opacity="0" stroke="#000000" stroke-width="1" stroke-opacity="0"></use></g></g><g><use xlink:href="#k4xhH2Yn4s" opacity="1" fill="#ffffff" fill-opacity="1"></use><g><use xlink:href="#k4xhH2Yn4s" opacity="1" fill-opacity="0" stroke="#000000" stroke-width="1" stroke-opacity="0"></use></g></g><g><use xlink:href="#a3FC0YAzD" opacity="1" fill="#ffffff" fill-opacity="1"></use><g><use xlink:href="#a3FC0YAzD" opacity="1" fill-opacity="0" stroke="#000000" stroke-width="1" stroke-opacity="0"></use></g></g><g><use xlink:href="#c6I7pZOgQ" opacity="1" fill="#ffffff" fill-opacity="1"></use><g><use xlink:href="#c6I7pZOgQ" opacity="1" fill-opacity="0" stroke="#000000" stroke-width="1" stroke-opacity="0"></use></g></g><g><use xlink:href="#g1pdPcEr5D" opacity="1" fill="#ffffff" fill-opacity="1"></use><g><use xlink:href="#g1pdPcEr5D" opacity="1" fill-opacity="0" stroke="#000000" stroke-width="1" stroke-opacity="0"></use></g></g><g><use xlink:href="#cYQX9iDqH" opacity="1" fill="#ffffff" fill-opacity="1"></use><g><use xlink:href="#cYQX9iDqH" opacity="1" fill-opacity="0" stroke="#000000" stroke-width="1" stroke-opacity="0"></use></g></g><g><use xlink:href="#a4wZvgHfb" opacity="1" fill="#ffffff" fill-opacity="1"></use><g><use xlink:href="#a4wZvgHfb" opacity="1" fill-opacity="0" stroke="#000000" stroke-width="1" stroke-opacity="0"></use></g></g><g><use xlink:href="#c1IFFHiSX" opacity="1" fill="#ffffff" fill-opacity="1"></use><g><use xlink:href="#c1IFFHiSX" opacity="1" fill-opacity="0" stroke="#000000" stroke-width="1" stroke-opacity="0"></use></g></g><g><use xlink:href="#eUqhySi7K" opacity="1" fill="#ffffff" fill-opacity="1"></use><g><use xlink:href="#eUqhySi7K" opacity="1" fill-opacity="0" stroke="#000000" stroke-width="1" stroke-opacity="0"></use></g></g><g><use xlink:href="#e30NHUrZLH" opacity="1" fill="#ffffff" fill-opacity="1"></use><g><use xlink:href="#e30NHUrZLH" opacity="1" fill-opacity="0" stroke="#000000" stroke-width="1" stroke-opacity="0"></use></g></g><g><use xlink:href="#d4lW5lzte" opacity="1" fill="#ffffff" fill-opacity="1"></use><g><use xlink:href="#d4lW5lzte" opacity="1" fill-opacity="0" stroke="#000000" stroke-width="1" stroke-opacity="0"></use></g></g><g><use xlink:href="#c2s3nBQhb" opacity="1" fill="#ffffff" fill-opacity="1"></use><g><use xlink:href="#c2s3nBQhb" opacity="1" fill-opacity="0" stroke="#000000" stroke-width="1" stroke-opacity="0"></use></g></g><g><use xlink:href="#b1pDKgrhnJ" opacity="1" fill="#ffffff" fill-opacity="1"></use><g><use xlink:href="#b1pDKgrhnJ" opacity="1" fill-opacity="0" stroke="#000000" stroke-width="1" stroke-opacity="0"></use></g></g><g><use xlink:href="#d1TF6HnSix" opacity="1" fill="#ffffff" fill-opacity="1"></use><g><use xlink:href="#d1TF6HnSix" opacity="1" fill-opacity="0" stroke="#000000" stroke-width="1" stroke-opacity="0"></use></g></g><g><use xlink:href="#oK5AhDi9" opacity="1" fill="#ffffff" fill-opacity="1"></use><g><use xlink:href="#oK5AhDi9" opacity="1" fill-opacity="0" stroke="#000000" stroke-width="1" stroke-opacity="0"></use></g></g><g><use xlink:href="#g7V58j2gwn" opacity="1" fill="#ffffff" fill-opacity="1"></use><g><use xlink:href="#g7V58j2gwn" opacity="1" fill-opacity="0" stroke="#000000" stroke-width="1" stroke-opacity="0"></use></g></g><g><use xlink:href="#acCr3zRBP" opacity="1" fill="#ffffff" fill-opacity="1"></use><g><use xlink:href="#acCr3zRBP" opacity="1" fill-opacity="0" stroke="#000000" stroke-width="1" stroke-opacity="0"></use></g></g><g><use xlink:href="#d6Es8tZJoY" opacity="1" fill="#ffffff" fill-opacity="1"></use><g><use xlink:href="#d6Es8tZJoY" opacity="1" fill-opacity="0" stroke="#000000" stroke-width="1" stroke-opacity="0"></use></g></g><g><use xlink:href="#c23J0N33b" opacity="1" fill="#ee8e9e" fill-opacity="1"></use><g><use xlink:href="#c23J0N33b" opacity="1" fill-opacity="0" stroke="#000000" stroke-width="1" stroke-opacity="0"></use></g></g><g><use xlink:href="#c1HjlqAQZs" opacity="1" fill="#000000" fill-opacity="1"></use><g><use xlink:href="#c1HjlqAQZs" opacity="1" fill-opacity="0" stroke="#000000" stroke-width="1" stroke-opacity="0"></use></g></g><g><use xlink:href="#e1A7ecqnGJ" opacity="1" fill="#b07781" fill-opacity="1"></use><g><use xlink:href="#e1A7ecqnGJ" opacity="1" fill-opacity="0" stroke="#000000" stroke-width="1" stroke-opacity="0"></use></g></g><g><use xlink:href="#a2ePdJQm2Q" opacity="1" fill="#1f2327" fill-opacity="1"></use><g><use xlink:href="#a2ePdJQm2Q" opacity="1" fill-opacity="0" stroke="#000000" stroke-width="1" stroke-opacity="0"></use></g></g><g><use xlink:href="#b7bw8Mo7y" opacity="1" fill="#000000" fill-opacity="1"></use><g><use xlink:href="#b7bw8Mo7y" opacity="1" fill-opacity="0" stroke="#000000" stroke-width="1" stroke-opacity="0"></use></g></g><g><use xlink:href="#bVHBryNU7" opacity="1" fill="#454b69" fill-opacity="1"></use><g><use xlink:href="#bVHBryNU7" opacity="1" fill-opacity="0" stroke="#000000" stroke-width="1" stroke-opacity="0"></use></g></g><g><use xlink:href="#d48fwYfhj" opacity="1" fill="#000000" fill-opacity="1"></use><g><use xlink:href="#d48fwYfhj" opacity="1" fill-opacity="0" stroke="#000000" stroke-width="1" stroke-opacity="0"></use></g></g><g><use xlink:href="#a53VC9fNsm" opacity="1" fill="#000000" fill-opacity="1"></use><g><use xlink:href="#a53VC9fNsm" opacity="1" fill-opacity="0" stroke="#000000" stroke-width="1" stroke-opacity="0"></use></g></g><g><use xlink:href="#aKoZqjQ8e" opacity="1" fill="#000000" fill-opacity="1"></use><g><use xlink:href="#aKoZqjQ8e" opacity="1" fill-opacity="0" stroke="#000000" stroke-width="1" stroke-opacity="0"></use></g></g><g><use xlink:href="#bajoZIqy" opacity="1" fill="#000000" fill-opacity="1"></use><g><use xlink:href="#bajoZIqy" opacity="1" fill-opacity="0" stroke="#000000" stroke-width="1" stroke-opacity="0"></use></g></g><g><use xlink:href="#c1hXOtaz0y" opacity="1" fill="#000000" fill-opacity="1"></use><g><use xlink:href="#c1hXOtaz0y" opacity="1" fill-opacity="0" stroke="#000000" stroke-width="1" stroke-opacity="0"></use></g></g><g><use xlink:href="#g2Rdv2fwv2" opacity="1" fill="#444053" fill-opacity="1"></use><g><use xlink:href="#g2Rdv2fwv2" opacity="1" fill-opacity="0" stroke="#000000" stroke-width="1" stroke-opacity="0"></use></g></g><g><use xlink:href="#i1rShuwaai" opacity="1" fill="#444053" fill-opacity="1"></use><g><use xlink:href="#i1rShuwaai" opacity="1" fill-opacity="0" stroke="#000000" stroke-width="1" stroke-opacity="0"></use></g></g><g><use xlink:href="#c16Y7AxqUb" opacity="1" fill="#444053" fill-opacity="1"></use><g><use xlink:href="#c16Y7AxqUb" opacity="1" fill-opacity="0" stroke="#000000" stroke-width="1" stroke-opacity="0"></use></g></g><g><use xlink:href="#hiMiec69G" opacity="1" fill="#444053" fill-opacity="1"></use><g><use xlink:href="#hiMiec69G" opacity="1" fill-opacity="0" stroke="#000000" stroke-width="1" stroke-opacity="0"></use></g></g><g><use xlink:href="#d8RpNM8vR" opacity="1" fill="#444053" fill-opacity="1"></use><g><use xlink:href="#d8RpNM8vR" opacity="1" fill-opacity="0" stroke="#000000" stroke-width="1" stroke-opacity="0"></use></g></g><g><use xlink:href="#d4rbZiBKx" opacity="1" fill="#444053" fill-opacity="1"></use><g><use xlink:href="#d4rbZiBKx" opacity="1" fill-opacity="0" stroke="#000000" stroke-width="1" stroke-opacity="0"></use></g></g><g><use xlink:href="#a4WU0Krtlx" opacity="1" fill="url(#gradientcw5iVwuaU)"></use><g><use xlink:href="#a4WU0Krtlx" opacity="1" fill-opacity="0" stroke="#000000" stroke-width="1" stroke-opacity="0"></use></g></g><g><use xlink:href="#d47YvtJd9c" opacity="1" fill="#6c63ff" fill-opacity="1"></use><g><use xlink:href="#d47YvtJd9c" opacity="1" fill-opacity="0" stroke="#000000" stroke-width="1" stroke-opacity="0"></use></g></g><g><use xlink:href="#awrOpie6h" opacity="1" fill="#000000" fill-opacity="1"></use><g><use xlink:href="#awrOpie6h" opacity="1" fill-opacity="0" stroke="#000000" stroke-width="1" stroke-opacity="0"></use></g></g><g><use xlink:href="#b7oRgWE0KV" opacity="1" fill="#a26565" fill-opacity="1"></use><g><use xlink:href="#b7oRgWE0KV" opacity="1" fill-opacity="0" stroke="#000000" stroke-width="1" stroke-opacity="0"></use></g></g><g><use xlink:href="#a2OQVoVMg2" opacity="1" fill="#805656" fill-opacity="1"></use><g><use xlink:href="#a2OQVoVMg2" opacity="1" fill-opacity="0" stroke="#000000" stroke-width="1" stroke-opacity="0"></use></g></g><g><use xlink:href="#d4YWIm3MW" opacity="1" fill="#a26565" fill-opacity="1"></use><g><use xlink:href="#d4YWIm3MW" opacity="1" fill-opacity="0" stroke="#000000" stroke-width="1" stroke-opacity="0"></use></g></g><g><use xlink:href="#dYV98Ik7c" opacity="1" fill="#454b69" fill-opacity="1"></use><g><use xlink:href="#dYV98Ik7c" opacity="1" fill-opacity="0" stroke="#000000" stroke-width="1" stroke-opacity="0"></use></g></g><g><use xlink:href="#aVQNV743l" opacity="1" fill="#000000" fill-opacity="1"></use><g><use xlink:href="#aVQNV743l" opacity="1" fill-opacity="0" stroke="#000000" stroke-width="1" stroke-opacity="0"></use></g></g><g><use xlink:href="#d6s7EFABVA" opacity="1" fill="#efb7b9" fill-opacity="1"></use><g><use xlink:href="#d6s7EFABVA" opacity="1" fill-opacity="0" stroke="#000000" stroke-width="1" stroke-opacity="0"></use></g></g><g><use xlink:href="#a3gDEKQ8E" opacity="1" fill="#efb7b9" fill-opacity="1"></use><g><use xlink:href="#a3gDEKQ8E" opacity="1" fill-opacity="0" stroke="#000000" stroke-width="1" stroke-opacity="0"></use></g></g><g><use xlink:href="#l4ZOoza1nZ" opacity="1" fill="#1f2327" fill-opacity="1"></use><g><use xlink:href="#l4ZOoza1nZ" opacity="1" fill-opacity="0" stroke="#000000" stroke-width="1" stroke-opacity="0"></use></g></g><g><use xlink:href="#b61KgZdlYM" opacity="1" fill="#a26565" fill-opacity="1"></use><g><use xlink:href="#b61KgZdlYM" opacity="1" fill-opacity="0" stroke="#000000" stroke-width="1" stroke-opacity="0"></use></g></g><g><use xlink:href="#e27dZ2V9W" opacity="1" fill="#efb7b9" fill-opacity="1"></use><g><use xlink:href="#e27dZ2V9W" opacity="1" fill-opacity="0" stroke="#000000" stroke-width="1" stroke-opacity="0"></use></g></g><g><use xlink:href="#b1m6fFYxqv" opacity="1" fill="#000000" fill-opacity="1"></use><g><use xlink:href="#b1m6fFYxqv" opacity="1" fill-opacity="0" stroke="#000000" stroke-width="1" stroke-opacity="0"></use></g></g><g><use xlink:href="#dusWspqKP" opacity="1" fill="#1f2327" fill-opacity="1"></use><g><use xlink:href="#dusWspqKP" opacity="1" fill-opacity="0" stroke="#000000" stroke-width="1" stroke-opacity="0"></use></g></g><g><use xlink:href="#pkDCu7sMb" opacity="1" fill="#000000" fill-opacity="1"></use><g><use xlink:href="#pkDCu7sMb" opacity="1" fill-opacity="0" stroke="#000000" stroke-width="1" stroke-opacity="0"></use></g></g><g><use xlink:href="#e1EhHMlTB" opacity="1" fill="#000000" fill-opacity="1"></use><g><use xlink:href="#e1EhHMlTB" opacity="1" fill-opacity="0" stroke="#000000" stroke-width="1" stroke-opacity="0"></use></g></g></g></g></svg>